<svg version="1.1" id="Vrstva_1" xmlns:x="ns_extend;" xmlns:i="ns_ai;" xmlns:graph="ns_graphs;" xmlns="http://www.w3.org/2000/svg" xmlns:xlink="http://www.w3.org/1999/xlink" x="0px" y="0px" viewBox="0 0 411.9 85" style="enable-background:new 0 0 411.9 85;" xml:space="preserve">
 <style type="text/css">
  .st0{fill:#FFFFFF;}
	.st1{clip-path:url(#SVGID_2_);}
	.st2{clip-path:url(#SVGID_4_);}
	.st3{clip-path:url(#SVGID_6_);}
 </style>
 <metadata>
  <sfw xmlns="ns_sfw;">
   <slices>
   </slices>
   <sliceSourceBounds bottomLeftOrigin="true" height="100.7" width="435.5" x="447.1" y="-15.7">
   </sliceSourceBounds>
  </sfw>
 </metadata>
 <g>
  <path class="st0" d="M141.1,44.3v37.1c0,1.2-1,2.2-2.2,2.2h-16c-1.2,0-2.2-1-2.2-2.2V22.8c0-1.2,1-2.2,2.2-2.2h16
		c1.2,0,2.2,1,2.2,2.2v4.6c4-5,9.7-8.2,17.6-8.2c7.4,0,13.9,3,17.8,8.7c4.8-5.7,11.6-8.7,19.9-8.7c14.1,0,23.8,8.3,23.8,24.2v38
		c0,1.2-1,2.2-2.2,2.2h-16c-1.2,0-2.2-1-2.2-2.2V47.7c0-6.9-3.9-10.3-9.2-10.3c-4.4,0-7.9,2.8-10,6.9v37.1c0,1.2-1,2.2-2.2,2.2h-16
		c-1.2,0-2.2-1-2.2-2.2V47.7c0-6.9-3.9-10.3-9.2-10.3C146.5,37.4,143.1,40.2,141.1,44.3">
  </path>
  <path class="st0" d="M247,84.9c-11.8,0-21.8-7.8-21.8-19.9c0-11.1,7.3-16.2,20.9-19.8l17.4-4.5c-0.5-4.2-3.8-6.2-9.1-6.2
		c-4.7,0-8.1,1.8-9.6,5.4c-0.4,1-1.5,1.6-2.5,1.3l-13.8-3.3c-1.3-0.3-2-1.7-1.6-2.9c4-10.7,14.9-16.3,28.2-16.3
		c17.9,0,28.2,8.4,28.2,23.3v39.4c0,1.2-1,2.2-2.2,2.2H266c-1.2,0-2.2-0.9-2.2-2.1l-0.1-3.3l-0.1,0.1
		C258.4,82.7,253.4,84.9,247,84.9 M252.1,69.1c2.6,0,4.7-0.8,7.7-2.5l3.5-2.1l0.1-10.2l-9.1,2.5c-6.2,1.8-8.9,3.3-8.9,6.8
		C245.4,67.5,248.8,69.1,252.1,69.1">
  </path>
  <path class="st0" d="M315.9,53.9l-6.2,5.7v21.9c0,1.2-1,2.2-2.2,2.2h-15.7c-1.2,0-2.2-1-2.2-2.2V2.2c0-1.2,1-2.2,2.2-2.2h15.7
		c1.2,0,2.2,1,2.2,2.2V38L328,21.2c0.4-0.4,0.9-0.6,1.5-0.6h19.3c2,0,2.9,2.5,1.5,3.8l-18.8,17.1l21.4,38.8c0.8,1.5-0.3,3.2-1.9,3.2
		h-18.3c-0.8,0-1.6-0.5-1.9-1.2L315.9,53.9L315.9,53.9z">
  </path>
  <path class="st0" d="M382.3,85c-17.5,0-33.5-11-33.5-33.1c0-20.9,15.4-33,32.2-33s30.2,12.2,30.7,31.5c0.1,2,0.1,3.5,0.1,4.5
		c0,1.2-1,2.2-2.2,2.2H369c0.6,7.6,6.7,12.3,14.4,12.3c5.5,0,9.9-2.3,13.1-6.4c0.7-0.9,2-1.1,2.9-0.5l10.2,6.8
		c1,0.7,1.3,2.1,0.6,3.1C404.7,80.4,395.7,85,382.3,85 M369.4,44.7h22c-0.1-7.2-5.4-10.3-11-10.3C375.3,34.4,370,37.4,369.4,44.7">
  </path>
  <g>
   <defs>
    <path id="SVGID_1_" d="M72.8,20.7h15.8c1.2,0,2.2,1,2.2,2.2v58.4c0,1.2-1,2.2-2.2,2.2H72.8c-1.2,0-2.2-1-2.2-2.2V22.9
				C70.6,21.7,71.6,20.7,72.8,20.7z">
    </path>
   </defs>
   <clipPath id="SVGID_2_">
    <use href="#SVGID_1_" style="overflow:visible;">
    </use>
   </clipPath>
   <g class="st1">
    <rect x="60.4" y="19.1" transform="matrix(0.9383 -0.346 0.346 0.9383 -13.0253 31.145)" class="st0" width="40.6" height="65.8">
    </rect>
   </g>
  </g>
  <g>
   <defs>
    <path id="SVGID_3_" d="M26.4,21.5L0.2,73.6c-0.5,1.1-0.1,2.4,1,2.9l14.1,7.1c1.1,0.5,2.4,0.1,2.9-1l26.2-52.2
				c0.5-1.1,0.1-2.4-1-2.9l-14.1-7.1c-0.3-0.2-0.6-0.2-1-0.2C27.6,20.3,26.8,20.7,26.4,21.5">
    </path>
   </defs>
   <clipPath id="SVGID_4_">
    <use xlink:href="#SVGID_3_" style="overflow:visible;">
    </use>
   </clipPath>
   <g class="st2">
    <rect x="-11.1" y="13.9" transform="matrix(0.9179 -0.3968 0.3968 0.9179 -18.8915 13.1578)" class="st0" width="67" height="76.7">
    </rect>
   </g>
  </g>
  <g>
   <defs>
    <path id="SVGID_5_" d="M48.5,21.7L37.3,78.5c-0.2,1.2,0.5,2.3,1.7,2.6l15.5,3.1c1.2,0.2,2.3-0.5,2.6-1.7l11.2-56.8
				c0.2-1.2-0.5-2.3-1.7-2.6l-15.5-3.1c-0.1,0-0.3,0-0.4,0C49.6,19.9,48.7,20.6,48.5,21.7">
    </path>
   </defs>
   <clipPath id="SVGID_6_">
    <use xlink:href="#SVGID_5_" style="overflow:visible;">
    </use>
   </clipPath>
   <g class="st3">
    <rect x="26.9" y="16.4" transform="matrix(0.9384 -0.3455 0.3455 0.9384 -14.7714 21.4438)" class="st0" width="51.8" height="71.4">
    </rect>
   </g>
  </g>
 </g>
</svg>