<svg xmlns="http://www.w3.org/2000/svg" viewBox="0 0 512 320" role="img" aria-labelledby="title desc" shape-rendering="crispEdges">
  <title id="title">Mascota 8-bit de Claude FM</title>
  <desc id="desc">Mascota naranja pixel art con auriculares azules inspirada en Claude FM.</desc>
  <g fill="#241923">
    <rect x="192" y="24" width="128" height="16"/>
    <rect x="144" y="40" width="240" height="16"/>
    <rect x="112" y="56" width="304" height="16"/>
    <rect x="96" y="72" width="64" height="16"/>
    <rect x="256" y="72" width="144" height="16"/>
    <rect x="80" y="88" width="48" height="16"/>
    <rect x="272" y="88" width="160" height="16"/>
    <rect x="64" y="104" width="48" height="48"/>
    <rect x="416" y="104" width="48" height="64"/>
    <rect x="48" y="152" width="48" height="80"/>
    <rect x="448" y="168" width="48" height="64"/>
    <rect x="64" y="232" width="400" height="16"/>
    <rect x="96" y="248" width="64" height="16"/>
    <rect x="192" y="248" width="64" height="16"/>
    <rect x="320" y="248" width="64" height="16"/>
    <rect x="96" y="264" width="48" height="48"/>
    <rect x="192" y="264" width="48" height="48"/>
    <rect x="320" y="264" width="48" height="48"/>
  </g>
  <g fill="#ef7447">
    <rect x="128" y="72" width="128" height="32"/>
    <rect x="112" y="104" width="208" height="48"/>
    <rect x="96" y="152" width="272" height="32"/>
    <rect x="80" y="184" width="352" height="48"/>
    <rect x="64" y="168" width="48" height="48"/>
    <rect x="432" y="184" width="48" height="32"/>
    <rect x="112" y="248" width="32" height="48"/>
    <rect x="208" y="248" width="32" height="48"/>
    <rect x="336" y="248" width="32" height="48"/>
  </g>
  <g fill="#ff8754">
    <rect x="128" y="88" width="96" height="16"/>
    <rect x="112" y="120" width="192" height="32"/>
    <rect x="96" y="168" width="48" height="32"/>
    <rect x="368" y="152" width="64" height="32"/>
  </g>
  <g fill="#15151a">
    <rect x="272" y="72" width="128" height="32"/>
    <rect x="288" y="104" width="128" height="48"/>
    <rect x="128" y="168" width="48" height="16"/>
    <rect x="352" y="152" width="32" height="32"/>
    <rect x="384" y="184" width="48" height="16"/>
  </g>
  <g fill="#215c99">
    <rect x="96" y="88" width="32" height="112"/>
    <rect x="112" y="72" width="32" height="16"/>
    <rect x="400" y="88" width="32" height="112"/>
    <rect x="384" y="72" width="32" height="16"/>
    <rect x="144" y="40" width="176" height="16"/>
    <rect x="320" y="56" width="80" height="16"/>
  </g>
  <g fill="#2a74b8">
    <rect x="112" y="104" width="16" height="80"/>
    <rect x="416" y="104" width="16" height="80"/>
  </g>
  <g fill="#f7d6b2">
    <rect x="128" y="72" width="64" height="32"/>
  </g>
  <g fill="#8c3d40">
    <rect x="112" y="216" width="320" height="16"/>
    <rect x="240" y="184" width="32" height="16"/>
    <rect x="304" y="200" width="48" height="16"/>
    <rect x="432" y="200" width="48" height="16"/>
  </g>
</svg>
